<mxfile host="app.diagrams.net" modified="2020-12-21T20:32:09.564Z" agent="5.0 (Windows NT 10.0; Win64; x64) AppleWebKit/537.36 (KHTML, like Gecko) Chrome/87.0.4280.88 Safari/537.36" etag="R06PiWuZ_7RmaZPRmhOR" version="14.1.1" type="github">
  <diagram id="kEgPNVeuI4CAzyzKj0VG" name="Page-1">
    <mxGraphModel dx="3445" dy="2550" grid="0" gridSize="10" guides="1" tooltips="1" connect="1" arrows="1" fold="1" page="1" pageScale="1" pageWidth="850" pageHeight="1100" math="0" shadow="0">
      <root>
        <mxCell id="0" />
        <mxCell id="1" parent="0" />
        <mxCell id="nQS4915FL6vj4WGRiqd_-7" style="edgeStyle=orthogonalEdgeStyle;rounded=0;orthogonalLoop=1;jettySize=auto;html=1;exitX=0.5;exitY=0;exitDx=0;exitDy=0;entryX=1;entryY=0.5;entryDx=0;entryDy=0;" edge="1" parent="1" source="nQS4915FL6vj4WGRiqd_-4" target="nQS4915FL6vj4WGRiqd_-6">
          <mxGeometry relative="1" as="geometry" />
        </mxCell>
        <mxCell id="nQS4915FL6vj4WGRiqd_-4" value="Frontend" style="rounded=0;whiteSpace=wrap;html=1;rotation=-90;strokeColor=#d6b656;glass=0;shadow=1;fillColor=none;" vertex="1" parent="1">
          <mxGeometry x="610" y="152" width="793" height="87" as="geometry" />
        </mxCell>
        <mxCell id="nQS4915FL6vj4WGRiqd_-5" value="" style="rounded=0;whiteSpace=wrap;html=1;shadow=1;glass=0;rotation=90;align=center;strokeColor=#6c8ebf;perimeterSpacing=1;fillColor=none;" vertex="1" parent="1">
          <mxGeometry x="-136" y="92" width="810" height="249.5" as="geometry" />
        </mxCell>
        <mxCell id="nQS4915FL6vj4WGRiqd_-11" style="edgeStyle=orthogonalEdgeStyle;rounded=0;orthogonalLoop=1;jettySize=auto;html=1;entryX=0.837;entryY=-0.013;entryDx=0;entryDy=0;entryPerimeter=0;" edge="1" parent="1" source="nQS4915FL6vj4WGRiqd_-6" target="nQS4915FL6vj4WGRiqd_-5">
          <mxGeometry relative="1" as="geometry" />
        </mxCell>
        <mxCell id="nQS4915FL6vj4WGRiqd_-6" value="&lt;font style=&quot;font-size: 18px&quot;&gt;Nginx&lt;/font&gt;" style="whiteSpace=wrap;html=1;aspect=fixed;rounded=0;shadow=1;glass=0;" vertex="1" parent="1">
          <mxGeometry x="587" y="449.5" width="80" height="80" as="geometry" />
        </mxCell>
        <mxCell id="nQS4915FL6vj4WGRiqd_-9" value="Подсистема обработки &lt;br&gt;пользовательских &lt;br&gt;запросов" style="text;html=1;align=center;verticalAlign=middle;resizable=0;points=[];autosize=1;" vertex="1" parent="1">
          <mxGeometry x="199.5" y="-253" width="139" height="45" as="geometry" />
        </mxCell>
        <mxCell id="nQS4915FL6vj4WGRiqd_-13" value="Слой хранения пользовательской информации" style="text;html=1;strokeColor=none;fillColor=none;align=center;verticalAlign=middle;whiteSpace=wrap;rounded=0;shadow=1;glass=0;" vertex="1" parent="1">
          <mxGeometry x="607" y="-240.5" width="40" height="20" as="geometry" />
        </mxCell>
        <mxCell id="nQS4915FL6vj4WGRiqd_-14" value="&lt;font style=&quot;font-size: 24px&quot;&gt;Postgresql&lt;/font&gt;" style="shape=cylinder3;whiteSpace=wrap;html=1;boundedLbl=1;backgroundOutline=1;size=15;rounded=0;shadow=1;glass=0;fillColor=none;" vertex="1" parent="1">
          <mxGeometry x="555.5" y="-194" width="143" height="152" as="geometry" />
        </mxCell>
        <mxCell id="nQS4915FL6vj4WGRiqd_-17" value="" style="endArrow=classic;html=1;exitX=0.092;exitY=-0.018;exitDx=0;exitDy=0;exitPerimeter=0;entryX=0;entryY=0.5;entryDx=0;entryDy=0;entryPerimeter=0;" edge="1" parent="1" source="nQS4915FL6vj4WGRiqd_-5" target="nQS4915FL6vj4WGRiqd_-14">
          <mxGeometry width="50" height="50" relative="1" as="geometry">
            <mxPoint x="421" y="176" as="sourcePoint" />
            <mxPoint x="556" y="-54" as="targetPoint" />
          </mxGeometry>
        </mxCell>
        <mxCell id="nQS4915FL6vj4WGRiqd_-19" value="&lt;font style=&quot;font-size: 21px&quot;&gt;Redis&lt;/font&gt;" style="shape=cylinder3;whiteSpace=wrap;html=1;boundedLbl=1;backgroundOutline=1;size=15;rounded=0;shadow=1;glass=0;fillColor=none;" vertex="1" parent="1">
          <mxGeometry x="555.5" y="28" width="144.5" height="153" as="geometry" />
        </mxCell>
        <mxCell id="nQS4915FL6vj4WGRiqd_-21" value="Слой кэширования данных" style="text;html=1;strokeColor=none;fillColor=none;align=center;verticalAlign=middle;whiteSpace=wrap;rounded=0;shadow=1;glass=0;" vertex="1" parent="1">
          <mxGeometry x="600" y="-17" width="40" height="20" as="geometry" />
        </mxCell>
        <mxCell id="nQS4915FL6vj4WGRiqd_-29" value="&lt;font style=&quot;font-size: 15px&quot;&gt;Сервис метаданных&lt;/font&gt;" style="shape=card;whiteSpace=wrap;html=1;rounded=0;shadow=1;glass=0;fillColor=none;" vertex="1" parent="1">
          <mxGeometry x="205" y="-160" width="121" height="148" as="geometry" />
        </mxCell>
        <mxCell id="nQS4915FL6vj4WGRiqd_-30" value="&lt;font style=&quot;font-size: 15px&quot;&gt;Сервис объектов&lt;/font&gt;" style="shape=card;whiteSpace=wrap;html=1;rounded=0;shadow=1;glass=0;fillColor=none;" vertex="1" parent="1">
          <mxGeometry x="205" y="34" width="121" height="148" as="geometry" />
        </mxCell>
        <mxCell id="nQS4915FL6vj4WGRiqd_-31" value="&lt;font style=&quot;font-size: 15px&quot;&gt;Сервис справочников&lt;/font&gt;" style="shape=card;whiteSpace=wrap;html=1;rounded=0;shadow=1;glass=0;fillColor=none;" vertex="1" parent="1">
          <mxGeometry x="205" y="239" width="121" height="148" as="geometry" />
        </mxCell>
        <mxCell id="nQS4915FL6vj4WGRiqd_-32" value="&lt;font style=&quot;font-size: 15px&quot;&gt;Сервис журналирования&lt;/font&gt;" style="shape=card;whiteSpace=wrap;html=1;rounded=0;shadow=1;glass=0;fillColor=none;" vertex="1" parent="1">
          <mxGeometry x="208.5" y="444" width="121" height="148" as="geometry" />
        </mxCell>
        <mxCell id="nQS4915FL6vj4WGRiqd_-33" style="edgeStyle=orthogonalEdgeStyle;rounded=0;orthogonalLoop=1;jettySize=auto;html=1;exitX=0.5;exitY=1;exitDx=0;exitDy=0;exitPerimeter=0;" edge="1" parent="1" source="nQS4915FL6vj4WGRiqd_-29" target="nQS4915FL6vj4WGRiqd_-29">
          <mxGeometry relative="1" as="geometry" />
        </mxCell>
        <mxCell id="nQS4915FL6vj4WGRiqd_-34" value="" style="endArrow=classic;html=1;entryX=0;entryY=0.5;entryDx=0;entryDy=0;entryPerimeter=0;" edge="1" parent="1" target="nQS4915FL6vj4WGRiqd_-19">
          <mxGeometry width="50" height="50" relative="1" as="geometry">
            <mxPoint x="391" y="102" as="sourcePoint" />
            <mxPoint x="467" y="223" as="targetPoint" />
          </mxGeometry>
        </mxCell>
        <mxCell id="nQS4915FL6vj4WGRiqd_-36" value="&lt;span style=&quot;font-size: 21px&quot;&gt;ELK&lt;/span&gt;" style="shape=cylinder3;whiteSpace=wrap;html=1;boundedLbl=1;backgroundOutline=1;size=15;rounded=0;shadow=1;glass=0;fillColor=none;" vertex="1" parent="1">
          <mxGeometry x="554" y="225" width="144.5" height="153" as="geometry" />
        </mxCell>
        <mxCell id="nQS4915FL6vj4WGRiqd_-37" value="" style="endArrow=classic;html=1;entryX=0;entryY=0.5;entryDx=0;entryDy=0;entryPerimeter=0;" edge="1" parent="1">
          <mxGeometry width="50" height="50" relative="1" as="geometry">
            <mxPoint x="391" y="302" as="sourcePoint" />
            <mxPoint x="555.5" y="304.5" as="targetPoint" />
          </mxGeometry>
        </mxCell>
        <mxCell id="nQS4915FL6vj4WGRiqd_-38" value="&lt;font style=&quot;font-size: 15px&quot;&gt;Сервис авторизации OAuth 2.0&lt;/font&gt;" style="shape=card;whiteSpace=wrap;html=1;rounded=0;shadow=1;glass=0;fillColor=none;" vertex="1" parent="1">
          <mxGeometry x="199.5" y="694" width="121" height="148" as="geometry" />
        </mxCell>
        <mxCell id="nQS4915FL6vj4WGRiqd_-39" value="" style="rounded=0;whiteSpace=wrap;html=1;shadow=1;glass=0;rotation=90;align=center;strokeColor=#6c8ebf;perimeterSpacing=1;fillColor=none;" vertex="1" parent="1">
          <mxGeometry x="-576" y="92" width="810" height="249.5" as="geometry" />
        </mxCell>
        <mxCell id="nQS4915FL6vj4WGRiqd_-40" value="Подсистема подготовки &lt;br&gt;витрин данных" style="text;html=1;align=center;verticalAlign=middle;resizable=0;points=[];autosize=1;" vertex="1" parent="1">
          <mxGeometry x="-241.5" y="-241" width="142" height="31" as="geometry" />
        </mxCell>
        <mxCell id="nQS4915FL6vj4WGRiqd_-41" value="" style="rounded=0;whiteSpace=wrap;html=1;shadow=1;glass=0;rotation=90;align=center;strokeColor=#6c8ebf;perimeterSpacing=1;fillColor=none;" vertex="1" parent="1">
          <mxGeometry x="-1004" y="92" width="810" height="249.5" as="geometry" />
        </mxCell>
        <mxCell id="nQS4915FL6vj4WGRiqd_-42" value="Подсистема хранения &lt;br&gt;сырых данных" style="text;html=1;align=center;verticalAlign=middle;resizable=0;points=[];autosize=1;" vertex="1" parent="1">
          <mxGeometry x="-671" y="-245.5" width="133" height="31" as="geometry" />
        </mxCell>
      </root>
    </mxGraphModel>
  </diagram>
</mxfile>
